<svg id="visual" viewBox="0 0 1440 600" width="1440" height="600" xmlns="http://www.w3.org/2000/svg" xmlns:xlink="http://www.w3.org/1999/xlink" version="1.1"><g><g transform="translate(507 375)"><path d="M46.6 -53.9C58.2 -45.8 63.9 -29 61.6 -14.9C59.4 -0.7 49.2 10.9 39.4 18C29.6 25.1 20.3 27.7 12.2 28.4C4.1 29.2 -2.9 28.1 -16.3 29.7C-29.7 31.4 -49.6 35.7 -64.3 28.3C-79.1 20.9 -88.8 1.8 -87.8 -17.6C-86.9 -36.9 -75.3 -56.5 -58.9 -63.8C-42.5 -71.1 -21.3 -66.1 -1.9 -63.9C17.5 -61.6 35 -62.1 46.6 -53.9Z" fill="none" stroke="#001122" stroke-width="50"></path></g><g transform="translate(1095 255)"><path d="M7.6 -9.5C9.6 -7.3 11 -4.7 11.4 -2.1C11.7 0.6 11.1 3.3 9.5 4.9C7.9 6.4 5.2 6.8 2.4 8.6C-0.3 10.5 -3.3 13.8 -6.5 14.2C-9.7 14.6 -13.1 12.1 -14.6 8.8C-16.1 5.5 -15.6 1.4 -14.3 -2C-13.1 -5.4 -11 -8.1 -8.5 -10.3C-6 -12.4 -3 -14.1 -0.1 -13.9C2.7 -13.8 5.5 -11.8 7.6 -9.5Z" fill="none" stroke="#001122" stroke-width="50"></path></g><g transform="translate(352 164)"><path d="M17.5 -26.3C20.1 -18.6 18 -10.7 22.1 -1.8C26.3 7.2 36.7 17.2 35.3 21.2C34 25.2 20.9 23.2 10.3 26.1C-0.2 28.9 -8.1 36.5 -13.7 35.5C-19.2 34.4 -22.4 24.6 -28.1 15.7C-33.7 6.9 -41.9 -1 -42.9 -9.6C-43.8 -18.2 -37.4 -27.7 -29.1 -34.3C-20.7 -40.9 -10.4 -44.7 -1.5 -43C7.4 -41.2 14.9 -33.9 17.5 -26.3Z" fill="none" stroke="#001122" stroke-width="50"></path></g><g transform="translate(854 400)"><path d="M8.4 -9.2C11.2 -7.6 14.1 -5.3 16.2 -1.7C18.2 2 19.4 6.9 17.8 10.9C16.3 14.8 11.9 17.8 6.8 20.4C1.6 23.1 -4.3 25.5 -7.1 23C-10 20.4 -9.8 13 -13.8 7.3C-17.9 1.6 -26.3 -2.2 -27.5 -6.5C-28.7 -10.8 -22.8 -15.4 -17 -16.5C-11.2 -17.5 -5.6 -15 -1.4 -13.3C2.8 -11.6 5.5 -10.7 8.4 -9.2Z" fill="none" stroke="#001122" stroke-width="50"></path></g><g transform="translate(824 116)"><path d="M17.5 -16.9C25.2 -14.4 35.7 -11.3 37.8 -5.7C40 -0.1 33.9 8 28.9 16.7C23.9 25.4 20 34.9 12.9 39C5.8 43.1 -4.5 41.8 -9.4 35.8C-14.4 29.7 -14 18.8 -18.3 10.8C-22.6 2.9 -31.6 -2.1 -33.7 -8.7C-35.8 -15.3 -31.1 -23.4 -24.4 -26.1C-17.6 -28.7 -8.8 -25.9 -2 -23.6C4.9 -21.3 9.8 -19.4 17.5 -16.9Z" fill="none" stroke="#001122" stroke-width="50"></path></g><g transform="translate(570 173)"><path d="M45.6 -56.8C56.4 -45.4 60.3 -28.4 63.7 -11C67 6.4 69.7 24.1 63.8 39.2C57.9 54.3 43.4 66.7 29.3 65.3C15.2 63.8 1.6 48.4 -11.5 40C-24.7 31.6 -37.4 30.3 -45.6 23C-53.7 15.7 -57.2 2.5 -55.5 -10.3C-53.8 -23.1 -47 -35.5 -36.9 -47.1C-26.8 -58.6 -13.4 -69.4 2 -71.8C17.5 -74.2 34.9 -68.3 45.6 -56.8Z" fill="none" stroke="#001122" stroke-width="50"></path></g><g transform="translate(301 368)"><path d="M22 -24.7C27.6 -21.4 30.8 -13.7 31.1 -6.3C31.4 1 28.7 8.1 24.6 13.2C20.5 18.4 14.8 21.8 8.4 24.9C2 28 -5.1 30.9 -10.3 28.8C-15.5 26.7 -18.7 19.7 -23.9 12.8C-29.1 5.9 -36.2 -0.9 -35.7 -6.7C-35.1 -12.5 -26.9 -17.3 -19.6 -20.3C-12.4 -23.2 -6.2 -24.3 1 -25.5C8.1 -26.6 16.3 -27.9 22 -24.7Z" fill="none" stroke="#001122" stroke-width="50"></path></g><g transform="translate(1300 404)"><path d="M45.1 -55.8C56 -44.6 60.6 -28.1 63.2 -11.4C65.8 5.2 66.4 21.9 58.8 33C51.3 44.2 35.7 49.7 20.7 53.8C5.7 57.9 -8.7 60.7 -15.7 53.6C-22.7 46.5 -22.3 29.6 -26.8 17.6C-31.3 5.5 -40.7 -1.7 -39.5 -6.7C-38.3 -11.8 -26.5 -14.7 -18.2 -26.3C-9.9 -37.9 -4.9 -58.1 6.1 -65.4C17.1 -72.6 34.2 -66.9 45.1 -55.8Z" fill="none" stroke="#001122" stroke-width="50"></path></g><g transform="translate(147 126)"><path d="M31 -31.2C43.3 -26.7 58.3 -19.8 67 -6.5C75.6 6.8 77.9 26.5 67.5 33.7C57.1 41 34.1 35.7 15.6 42.1C-2.9 48.5 -16.8 66.5 -24.1 64.6C-31.4 62.7 -32 40.8 -39.9 24.4C-47.8 8 -62.8 -2.9 -61.5 -10.9C-60.2 -18.9 -42.4 -24.1 -29.4 -28.5C-16.4 -32.8 -8.2 -36.4 0.6 -37.1C9.4 -37.8 18.8 -35.7 31 -31.2Z" fill="none" stroke="#001122" stroke-width="50"></path></g><g transform="translate(1313 168)"><path d="M8.3 -10.7C11.8 -7 16.4 -5.3 16.9 -2.9C17.5 -0.5 13.9 2.8 11.7 7C9.5 11.2 8.7 16.4 5.8 18.6C2.9 20.7 -2 19.9 -6.7 18.2C-11.4 16.6 -15.9 14.2 -19.2 10.2C-22.5 6.3 -24.7 0.8 -22.8 -3C-21 -6.8 -15.1 -9 -10.7 -12.5C-6.2 -16.1 -3.1 -21.2 -0.3 -20.7C2.4 -20.3 4.8 -14.5 8.3 -10.7Z" fill="none" stroke="#001122" stroke-width="50"></path></g><g transform="translate(1072 474)"><path d="M10.3 -13C12.6 -10.4 13.2 -6.4 12.2 -3.4C11.2 -0.5 8.6 1.5 6.8 3.2C5 5 4 6.5 2.5 7C1.1 7.6 -0.6 7.1 -2.7 6.7C-4.8 6.3 -7.3 5.9 -9.7 4.3C-12.1 2.7 -14.6 -0.1 -13.6 -1.8C-12.6 -3.5 -8.2 -4 -5.3 -6.5C-2.5 -9 -1.2 -13.5 1.4 -15.1C4 -16.8 8 -15.6 10.3 -13Z" fill="none" stroke="#001122" stroke-width="50"></path></g><g transform="translate(106 436)"><path d="M19.6 -28.4C26.5 -17.6 33.9 -12.4 39.2 -3.8C44.4 4.9 47.6 17.1 42.4 23C37.3 29 23.8 28.7 12 33C0.3 37.2 -9.8 46 -18.2 45.1C-26.6 44.2 -33.3 33.6 -33.9 23.8C-34.5 14 -29 4.9 -27.4 -4.9C-25.8 -14.7 -27.9 -25.3 -24 -36.7C-20.1 -48 -10 -60.1 -1.8 -57.9C6.4 -55.7 12.7 -39.2 19.6 -28.4Z" fill="none" stroke="#001122" stroke-width="50"></path></g></g></svg>