<svg id="visual" viewBox="0 0 600 500" width="600" height="500" xmlns="http://www.w3.org/2000/svg" xmlns:xlink="http://www.w3.org/1999/xlink" version="1.1"><path d="M0 259L12.5 253.2C25 247.3 50 235.7 75 229.7C100 223.7 125 223.3 150 229.2C175 235 200 247 225 253.3C250 259.7 275 260.3 300 255.5C325 250.7 350 240.3 375 238.2C400 236 425 242 450 238.7C475 235.3 500 222.7 525 220.8C550 219 575 228 587.5 232.5L600 237L600 501L587.5 501C575 501 550 501 525 501C500 501 475 501 450 501C425 501 400 501 375 501C350 501 325 501 300 501C275 501 250 501 225 501C200 501 175 501 150 501C125 501 100 501 75 501C50 501 25 501 12.5 501L0 501Z" fill="#001122"></path><path d="M0 313L12.5 307C25 301 50 289 75 279.2C100 269.3 125 261.7 150 267.3C175 273 200 292 225 291.2C250 290.3 275 269.7 300 268C325 266.3 350 283.7 375 284.3C400 285 425 269 450 267.3C475 265.7 500 278.3 525 281.7C550 285 575 279 587.5 276L600 273L600 501L587.5 501C575 501 550 501 525 501C500 501 475 501 450 501C425 501 400 501 375 501C350 501 325 501 300 501C275 501 250 501 225 501C200 501 175 501 150 501C125 501 100 501 75 501C50 501 25 501 12.5 501L0 501Z" fill="#2b6781"></path><path d="M0 332L12.5 330.7C25 329.3 50 326.7 75 322.5C100 318.3 125 312.7 150 312.2C175 311.7 200 316.3 225 317C250 317.7 275 314.3 300 308.5C325 302.7 350 294.3 375 293.2C400 292 425 298 450 307.3C475 316.7 500 329.3 525 333.8C550 338.3 575 334.7 587.5 332.8L600 331L600 501L587.5 501C575 501 550 501 525 501C500 501 475 501 450 501C425 501 400 501 375 501C350 501 325 501 300 501C275 501 250 501 225 501C200 501 175 501 150 501C125 501 100 501 75 501C50 501 25 501 12.5 501L0 501Z" fill="#5fcdde"></path><path d="M0 334L12.5 332C25 330 50 326 75 326.2C100 326.3 125 330.7 150 339.7C175 348.7 200 362.3 225 366.7C250 371 275 366 300 359.2C325 352.3 350 343.7 375 342.5C400 341.3 425 347.7 450 350.3C475 353 500 352 525 355.2C550 358.3 575 365.7 587.5 369.3L600 373L600 501L587.5 501C575 501 550 501 525 501C500 501 475 501 450 501C425 501 400 501 375 501C350 501 325 501 300 501C275 501 250 501 225 501C200 501 175 501 150 501C125 501 100 501 75 501C50 501 25 501 12.5 501L0 501Z" fill="#7df9ff"></path><path d="M0 392L12.5 387.5C25 383 50 374 75 374.5C100 375 125 385 150 385.5C175 386 200 377 225 377C250 377 275 386 300 386.2C325 386.3 350 377.7 375 378C400 378.3 425 387.7 450 394C475 400.3 500 403.7 525 401.8C550 400 575 393 587.5 389.5L600 386L600 501L587.5 501C575 501 550 501 525 501C500 501 475 501 450 501C425 501 400 501 375 501C350 501 325 501 300 501C275 501 250 501 225 501C200 501 175 501 150 501C125 501 100 501 75 501C50 501 25 501 12.5 501L0 501Z" fill="#5fcdde"></path><path d="M0 416L12.5 414.8C25 413.7 50 411.3 75 415C100 418.7 125 428.3 150 431.8C175 435.3 200 432.7 225 433C250 433.3 275 436.7 300 438.3C325 440 350 440 375 436.7C400 433.3 425 426.7 450 421C475 415.3 500 410.7 525 413.3C550 416 575 426 587.5 431L600 436L600 501L587.5 501C575 501 550 501 525 501C500 501 475 501 450 501C425 501 400 501 375 501C350 501 325 501 300 501C275 501 250 501 225 501C200 501 175 501 150 501C125 501 100 501 75 501C50 501 25 501 12.5 501L0 501Z" fill="#2b6781"></path><path d="M0 440L12.5 444.7C25 449.3 50 458.7 75 460.3C100 462 125 456 150 453.7C175 451.3 200 452.7 225 452.8C250 453 275 452 300 455.2C325 458.3 350 465.7 375 464.7C400 463.7 425 454.3 450 454.2C475 454 500 463 525 465.7C550 468.3 575 464.7 587.5 462.8L600 461L600 501L587.5 501C575 501 550 501 525 501C500 501 475 501 450 501C425 501 400 501 375 501C350 501 325 501 300 501C275 501 250 501 225 501C200 501 175 501 150 501C125 501 100 501 75 501C50 501 25 501 12.5 501L0 501Z" fill="#001122"></path></svg>